0
SECTION
2
HEADER
9
$INSUNITS
70
4
9
$ACADVER
1
AC1014
9
$HANDSEED
5
FFFF
0
ENDSEC
0
SECTION
2
TABLES
0
TABLE
2
VPORT
5
8
100
AcDbSymbolTable
0
ENDTAB
0
TABLE
2
LTYPE
5
5
100
AcDbSymbolTable
0
LTYPE
5
14
100
AcDbSymbolTableRecord
100
AcDbLinetypeTableRecord
2
BYBLOCK
70
0
0
LTYPE
5
15
100
AcDbSymbolTableRecord
100
AcDbLinetypeTableRecord
2
BYLAYER
70
0
0
LTYPE
5
16
100
AcDbSymbolTableRecord
100
AcDbLinetypeTableRecord
2
DASHED
70
0
3
Dashed __ __ __ __ __ __ __ __ __ __ __ __ __ _
72
65
73
2
40
0.75
49
0.5
74
0
49
-0.25
74
0
0
ENDTAB
0
TABLE
2
LAYER
5
2
100
AcDbSymbolTable
70
2
0
LAYER
5
50
100
AcDbSymbolTableRecord
100
AcDbLayerTableRecord
2
0
70
0
62
7
6
CONTINUOUS
0
ENDTAB
0
TABLE
2
STYLE
5
3
100
AcDbSymbolTable
70
1
0
STYLE
5
11
100
AcDbSymbolTableRecord
100
AcDbTextStyleTableRecord
2
STANDARD
70
0
0
ENDTAB
0
TABLE
2
VIEW
5
6
100
AcDbSymbolTable
70
0
0
ENDTAB
0
TABLE
2
UCS
5
7
100
AcDbSymbolTable
70
0
0
ENDTAB
0
TABLE
2
APPID
5
9
100
AcDbSymbolTable
70
2
0
APPID
5
12
100
AcDbSymbolTableRecord
100
AcDbRegAppTableRecord
2
ACAD
70
0
0
ENDTAB
0
TABLE
2
DIMSTYLE
5
A
100
AcDbSymbolTable
70
1
0
ENDTAB
0
TABLE
2
BLOCK_RECORD
5
1
100
AcDbSymbolTable
70
1
0
BLOCK_RECORD
5
1F
100
AcDbSymbolTableRecord
100
AcDbBlockTableRecord
2
*MODEL_SPACE
0
BLOCK_RECORD
5
1B
100
AcDbSymbolTableRecord
100
AcDbBlockTableRecord
2
*PAPER_SPACE
0
ENDTAB
0
ENDSEC
0
SECTION
2
BLOCKS
0
BLOCK
5
20
100
AcDbEntity
100
AcDbBlockBegin
2
*MODEL_SPACE
0
ENDBLK
5
21
100
AcDbEntity
100
AcDbBlockEnd
0
BLOCK
5
1C
100
AcDbEntity
100
AcDbBlockBegin
2
*PAPER_SPACE
0
ENDBLK
5
1D
100
AcDbEntity
100
AcDbBlockEnd
0
ENDSEC
0
SECTION
2
ENTITIES
0
POINT
5
100
100
AcDbEntity
8
0
100
AcDbPoint
10
-285.30035422889023
20
12.100000208597306
30
0
0
POINT
5
101
100
AcDbEntity
8
0
100
AcDbPoint
10
-301.30035422889023
20
12.100000208597306
30
0
0
POINT
5
102
100
AcDbEntity
8
0
100
AcDbPoint
10
-285.30035422889023
20
26.10000020859729
30
0
0
LWPOLYLINE
5
103
100
AcDbEntity
8
0
100
AcDbPolyline
90
8
70
1
43
0.0
10
-311.13835422889031
20
109.77460083603222
10
-311.13835422889019
20
72.274600836033216
42
-0.4142135623730846
10
-311.63835422889019
20
71.77460083603323
10
-323.63835422889019
20
71.774600836032292
42
-0.41421356237314189
10
-324.13835422889019
20
72.274600836032278
10
-324.13835422889019
20
109.77460083603233
42
-0.41421356237309503
10
-323.63835422889031
20
110.27460083603223
10
-311.63835422889025
20
110.27460083603219
42
-0.41421356237309503
0
LWPOLYLINE
5
104
100
AcDbEntity
8
0
100
AcDbPolyline
90
19
70
1
43
0.0
10
-328.34735422889025
20
63.77460083603011
10
-306.94735422889022
20
63.77460083603011
42
-0.41421356237309503
10
-306.44735422889022
20
63.274600836030103
10
-306.44735422889022
20
0.77460083602998608
42
0.41421356237303025
10
-305.94735422889039
20
0.2746008360300185
10
-305.20402479911701
20
0.2746008360297888
42
-0.15123578093544388
10
-304.92154129740646
20
0.18715758517014475
10
-303.31220008521495
20
-0.91478134084306717
42
0.15123578093552442
10
-303.02971658350424
20
-1.0022245917026915
10
19.552645771109844
20
-1.002224591702694
42
0.41421356237309193
10
24.552645771109781
20
3.9977754082973034
10
24.552645771109809
20
140.04977540829731
42
0.41421356237309348
10
19.552645771109781
20
145.04977540829731
10
-334.33835422889024
20
145.04977540829725
42
0.41421356237310125
10
-339.33835422889035
20
140.04977540829725
10
-339.33835422889018
20
5.2746008360376173
42
0.41421356237304691
10
-334.3383542288916
20
0.27460083603787044
10
-328.84735422889025
20
0.27460083603012997
10
-328.84735422889025
20
63.274600836030139
42
-0.41421356237309503
0
LWPOLYLINE
5
105
100
AcDbEntity
8
0
100
AcDbPolyline
90
8
70
1
43
0.0
10
-74.812104230000003
20
54.864775410000021
10
-87.812104229999974
20
54.864775410000021
42
-0.41421356237310542
10
-88.312104230000003
20
55.364775410000028
10
-88.312104230000003
20
68.364775410000021
42
-0.41421356237309503
10
-87.812104229999989
20
68.864775410000021
10
-74.812104230000003
20
68.864775410000021
42
-0.41421356237310542
10
-74.312104229999974
20
68.364775410000021
10
-74.312104229999989
20
55.364775410000021
42
-0.41421356237310542
0
LWPOLYLINE
5
106
100
AcDbEntity
8
0
100
AcDbPolyline
90
8
70
1
43
0.0
10
-106.86210422999999
20
68.864775410000021
42
0.41421356237309503
10
-107.36210423
20
68.364775410000021
10
-107.36210423
20
55.364775410000028
42
0.41421356237309503
10
-106.86210422999999
20
54.864775410000021
10
-93.86210423
20
54.864775410000021
42
0.41421356237309503
10
-93.36210423
20
55.364775410000028
10
-93.362104229999986
20
68.364775410000021
42
0.41421356237310542
10
-93.862104230000014
20
68.864775410000036
0
LWPOLYLINE
5
107
100
AcDbEntity
8
0
100
AcDbPolyline
90
8
70
1
43
0.0
10
-126.41210422999998
20
55.364775410000028
42
0.41421356237309503
10
-125.91210422999998
20
54.864775410000021
10
-112.91210422999998
20
54.864775410000028
42
0.41421356237309503
10
-112.41210422999998
20
55.364775410000028
10
-112.41210422999998
20
68.364775410000021
42
0.41421356237309503
10
-112.91210422999998
20
68.864775410000036
10
-125.91210422999998
20
68.864775410000036
42
0.41421356237309503
10
-126.41210422999997
20
68.364775410000021
0
LWPOLYLINE
5
108
100
AcDbEntity
8
0
100
AcDbPolyline
90
8
70
1
43
0.0
10
-144.96210422999999
20
68.864775410000036
42
0.41421356237309503
10
-145.46210422999999
20
68.364775410000036
10
-145.46210422999999
20
55.364775410000036
42
0.4142135623730846
10
-144.96210423000002
20
54.864775410000028
10
-131.96210422999999
20
54.864775410000036
42
0.41421356237309503
10
-131.46210422999999
20
55.364775410000028
10
-131.46210422999999
20
68.364775410000021
42
0.41421356237309503
10
-131.96210422999999
20
68.864775410000036
0
LWPOLYLINE
5
109
100
AcDbEntity
8
0
100
AcDbPolyline
90
8
70
1
43
0.0
10
-151.01210423000001
20
54.864775410000036
42
0.41421356237309503
10
-150.51210423000001
20
55.364775410000036
10
-150.51210422999998
20
68.364775410000036
42
0.4142135623730846
10
-151.01210422999998
20
68.864775410000036
10
-164.01210422999995
20
68.864775410000036
42
0.41421356237309503
10
-164.51210422999992
20
68.364775410000036
10
-164.51210422999998
20
55.364775410000043
42
0.41421356237309503
10
-164.01210422999995
20
54.86477541
0
LWPOLYLINE
5
110
100
AcDbEntity
8
0
100
AcDbPolyline
90
8
70
1
43
0.0
10
-21.92460423
20
87.414775410000018
42
0.41421356237309503
10
-22.424604230000003
20
87.914775410000033
10
-35.424604229999986
20
87.914775410000033
42
0.41421356237309503
10
-35.924604229999986
20
87.414775410000018
10
-35.924604229999993
20
74.414775410000004
42
0.4142135623730846
10
-35.424604230000014
20
73.914775410000018
10
-22.42460423
20
73.914775410000018
42
0.41421356237309503
10
-21.92460423
20
74.414775410000004
0
LWPOLYLINE
5
111
100
AcDbEntity
8
0
100
AcDbPolyline
90
8
70
1
43
0.0
10
-31.449604230000006
20
25.502275410000017
10
-31.449604230000002
20
12.502275410000019
42
-0.41421356237309764
10
-31.949604229999998
20
12.002275410000017
10
-44.94960423000002
20
12.002275410000021
42
-0.4142135623730846
10
-45.449604229999998
20
12.502275410000019
10
-45.449604229999998
20
25.502275410000017
42
-0.41421356237309503
10
-44.949604230000006
20
26.002275410000017
10
-31.949604230000013
20
26.00227541000001
42
-0.41421356237310281
0
LWPOLYLINE
5
112
100
AcDbEntity
8
0
100
AcDbPolyline
90
8
70
1
43
0.0
10
-26.399604230000016
20
12.502275410000019
10
-26.399604229999998
20
25.502275410000017
42
-0.41421356237309503
10
-25.899604230000001
20
26.002275410000017
10
-12.899604230000001
20
26.00227541000001
42
-0.41421356237309631
10
-12.399604230000001
20
25.502275410000014
10
-12.399604230000001
20
12.50227541000001
42
-0.41421356237309503
10
-12.89960423
20
12.002275410000012
10
-25.899604230000008
20
12.002275410000001
42
-0.41421356237309115
0
LWPOLYLINE
5
113
100
AcDbEntity
8
0
100
AcDbPolyline
90
8
70
1
43
0.0
10
-64.499604230000003
20
12.502275410000019
10
-64.499604229999989
20
25.502275410000021
42
-0.41421356237309503
10
-63.999604229999996
20
26.002275410000021
10
-50.999604229999989
20
26.002275410000021
42
-0.41421356237308982
10
-50.499604230000003
20
25.502275410000021
10
-50.499604230000003
20
12.502275410000019
42
-0.41421356237309503
10
-50.999604229999996
20
12.002275410000021
10
-63.999604229999996
20
12.002275410000017
42
-0.41421356237309243
0
LWPOLYLINE
5
114
100
AcDbEntity
8
0
100
AcDbPolyline
90
8
70
1
43
0.0
10
-83.049604229999986
20
26.002275410000024
42
0.41421356237309503
10
-83.549604229999971
20
25.502275410000024
10
-83.54960423
20
12.502275410000028
42
0.41421356237310542
10
-83.049604229999971
20
12.002275410000021
10
-70.049604229999986
20
12.002275410000022
42
0.41421356237309243
10
-69.54960423
20
12.502275410000019
10
-69.549604229999986
20
25.502275410000024
42
0.41421356237310025
10
-70.04960423
20
26.002275410000031
0
LWPOLYLINE
5
115
100
AcDbEntity
8
0
100
AcDbPolyline
90
8
70
1
43
0.0
10
-93.86210423
20
12.00227541000003
42
0.41421356237309503
10
-93.36210423
20
12.502275410000028
10
-93.362104229999986
20
25.502275410000031
42
0.41421356237310542
10
-93.862104230000014
20
26.002275410000038
10
-106.86210422999999
20
26.002275410000031
42
0.41421356237309503
10
-107.36210423
20
25.502275410000035
10
-107.36210423
20
12.502275410000038
42
0.41421356237309503
10
-106.86210422999999
20
12.00227541000003
0
LWPOLYLINE
5
116
100
AcDbEntity
8
0
100
AcDbPolyline
90
8
70
1
43
0.0
10
-125.91210422999998
20
26.002275410000031
42
0.41421356237309503
10
-126.41210422999997
20
25.502275410000035
10
-126.41210422999998
20
12.502275410000037
42
0.4142135623730846
10
-125.91210423
20
12.00227541000003
10
-112.91210422999998
20
12.002275410000035
42
0.41421356237309764
10
-112.41210422999998
20
12.502275410000037
10
-112.41210422999998
20
25.502275410000024
42
0.41421356237309503
10
-112.91210422999998
20
26.002275410000031
0
LWPOLYLINE
5
117
100
AcDbEntity
8
0
100
AcDbPolyline
90
8
70
1
43
0.0
10
-164.01210422999995
20
26.002275410000042
10
-151.01210422999998
20
26.002275410000053
42
-0.4142135623730846
10
-150.51210422999998
20
25.502275410000045
10
-150.51210423000001
20
12.502275410000037
42
-0.41421356237309243
10
-151.01210423000001
20
12.002275410000042
10
-164.01210422999995
20
12.002275410000003
42
-0.41421356237309503
10
-164.51210422999998
20
12.502275410000045
10
-164.51210422999995
20
25.502275410000045
42
-0.41421356237309503
0
LWPOLYLINE
5
118
100
AcDbEntity
8
0
100
AcDbPolyline
90
8
70
1
43
0.0
10
-145.46210422999999
20
12.502275410000042
42
0.41421356237309503
10
-144.96210422999999
20
12.002275410000035
10
-131.96210422999999
20
12.002275410000038
42
0.41421356237309503
10
-131.46210422999999
20
12.502275410000037
10
-131.46210422999999
20
25.502275410000038
42
0.41421356237309503
10
-131.96210422999999
20
26.002275410000045
10
-144.96210422999999
20
26.002275410000038
42
0.41421356237309243
10
-145.46210422999997
20
25.502275410000045
0
LWPOLYLINE
5
119
100
AcDbEntity
8
0
100
AcDbPolyline
90
8
70
1
43
0.0
10
-174.82460422999998
20
12.002275410000047
10
-187.82460422999998
20
12.002275410000006
42
-0.41421356237309503
10
-188.32460423000001
20
12.502275410000049
10
-188.32460422999998
20
25.502275410000053
42
-0.41421356237309503
10
-187.82460422999998
20
26.002275410000053
10
-174.82460422999998
20
26.002275410000092
42
-0.41421356237309503
10
-174.32460422999995
20
25.502275410000049
10
-174.32460422999998
20
12.502275410000045
42
-0.41421356237309503
0
LWPOLYLINE
5
120
100
AcDbEntity
8
0
100
AcDbPolyline
90
8
70
1
43
0.0
10
-207.37460423000002
20
12.502275410000099
10
-207.37460422999999
20
25.502275410000053
42
-0.41421356237309503
10
-206.87460422999999
20
26.002275410000053
10
-193.87460422999999
20
26.002275410000095
42
-0.41421356237309503
10
-193.37460422999996
20
25.502275410000053
10
-193.37460422999999
20
12.502275410000054
42
-0.41421356237309764
10
-193.87460422999999
20
12.002275410000053
10
-206.87460422999999
20
12.002275410000054
42
-0.41421356237309631
0
LWPOLYLINE
5
121
100
AcDbEntity
8
0
100
AcDbPolyline
90
8
70
1
43
0.0
10
-226.42460423000003
20
12.502275410000054
10
-226.42460423
20
25.50227541000006
42
-0.41421356237309503
10
-225.92460423
20
26.00227541000006
10
-212.92460423
20
26.002275410000099
42
-0.41421356237309503
10
-212.42460422999997
20
25.502275410000056
10
-212.42460423
20
12.502275410000054
42
-0.41421356237309503
10
-212.92460423
20
12.002275410000056
10
-225.92460423
20
12.002275410000017
42
-0.41421356237309243
0
LWPOLYLINE
5
122
100
AcDbEntity
8
0
100
AcDbPolyline
90
8
70
1
43
0.0
10
-231.97460423000001
20
12.00227541000006
42
0.41421356237309503
10
-231.47460423000001
20
12.50227541000006
10
-231.47460422999998
20
25.50227541000006
42
0.41421356237309503
10
-231.97460423000001
20
26.002275410000102
10
-244.97460423000001
20
26.00227541000006
42
0.41421356237309503
10
-245.47460422999995
20
25.50227541000006
10
-245.47460423000004
20
12.502275410000063
42
0.41421356237309503
10
-244.97460423000001
20
12.002275410000021
0
LWPOLYLINE
5
123
100
AcDbEntity
8
0
100
AcDbPolyline
90
8
70
1
43
0.0
10
-255.28710423000001
20
25.502275410000067
42
0.41421356237309503
10
-255.78710423000004
20
26.002275410000109
10
-268.78710423000001
20
26.002275410000067
42
0.41421356237309503
10
-269.28710423000001
20
25.50227541000007
10
-269.28710423000007
20
12.502275410000067
42
0.41421356237309503
10
-268.78710423000001
20
12.00227541000003
10
-255.78710423000004
20
12.002275410000065
42
0.4142135623730937
10
-255.28710423000001
20
12.502275410000063
0
LWPOLYLINE
5
124
100
AcDbEntity
8
0
100
AcDbPolyline
90
8
70
1
43
0.0
10
10.912895769999995
20
35.814775410000003
42
0.41421356237309503
10
11.412895769999993
20
36.314775410000003
10
11.412895769999995
20
49.314775410000003
42
0.41421356237310542
10
10.912895769999977
20
49.814775410000003
10
-2.0871042299999951
20
49.814775410000003
42
0.41421356237309503
10
-2.5871042300000369
20
49.314775409999996
10
-2.5871042300000013
20
36.31477541000001
42
0.41421356237310025
10
-2.0871042299999942
20
35.81477541000001
0
LWPOLYLINE
5
125
100
AcDbEntity
8
0
100
AcDbPolyline
90
8
70
1
43
0.0
10
-8.137104230000034
20
35.81477541000001
10
-21.137104230000006
20
35.814775410000003
42
-0.41421356237309243
10
-21.637104230000006
20
36.31477541000001
10
-21.637104230000016
20
49.314775409999996
42
-0.41421356237309503
10
-21.137104230000002
20
49.81477541000001
10
-8.137104230000034
20
49.814775409999996
42
-0.41421356237311324
10
-7.6371042300000047
20
49.314775409999996
10
-7.637104230000002
20
36.31477541000001
42
-0.41421356237311452
0
LWPOLYLINE
5
126
100
AcDbEntity
8
0
100
AcDbPolyline
90
8
70
1
43
0.0
10
-45.73710423
20
49.31477541000001
42
0.41421356237309503
10
-46.237104229999993
20
49.81477541000001
10
-59.237104229999993
20
49.81477541000001
42
0.41421356237309503
10
-59.73710423
20
49.31477541000001
10
-59.737104229999993
20
36.314775410000017
42
0.41421356237309503
10
-59.237104229999993
20
35.814775410000017
10
-46.237104229999993
20
35.814775410000017
42
0.41421356237309503
10
-45.737104230000014
20
36.314775410000017
0
LWPOLYLINE
5
127
100
AcDbEntity
8
0
100
AcDbPolyline
90
8
70
1
43
0.0
10
-27.187104229999996
20
35.81477541000001
42
0.41421356237309503
10
-26.687104229999999
20
36.31477541000001
10
-26.687104229999999
20
49.31477541000001
42
0.41421356237310281
10
-27.18710423000001
20
49.81477541000001
10
-40.187104230000003
20
49.814775410000003
42
0.41421356237309503
10
-40.687104229999989
20
49.314775410000003
10
-40.687104229999996
20
36.314775410000017
42
0.4142135623730846
10
-40.187104230000017
20
35.814775410000017
0
LWPOLYLINE
5
128
100
AcDbEntity
8
0
100
AcDbPolyline
90
8
70
1
43
0.0
10
-65.287104229999983
20
35.814775410000017
42
0.41421356237309503
10
-64.787104229999983
20
36.314775410000017
10
-64.787104229999983
20
49.31477541000001
42
0.41421356237310025
10
-65.287104229999997
20
49.81477541000001
10
-78.287104229999983
20
49.81477541000001
42
0.41421356237309503
10
-78.787104229999983
20
49.31477541000001
10
-78.787104229999997
20
36.314775410000024
42
0.41421356237310542
10
-78.287104229999969
20
35.814775410000017
0
LWPOLYLINE
5
129
100
AcDbEntity
8
0
100
AcDbPolyline
90
8
70
1
43
0.0
10
-83.837104229999994
20
49.31477541000001
42
0.41421356237309503
10
-84.337104229999994
20
49.814775410000003
10
-97.337104230000023
20
49.81477541000001
42
0.41421356237309503
10
-97.837104230000023
20
49.31477541000001
10
-97.837104230000008
20
36.314775410000024
42
0.41421356237310542
10
-97.33710422999998
20
35.814775410000017
10
-84.337104229999994
20
35.814775410000024
42
0.41421356237309503
10
-83.837104229999994
20
36.314775410000024
0
LWPOLYLINE
5
130
100
AcDbEntity
8
0
100
AcDbPolyline
90
8
70
1
43
0.0
10
-103.38710423000001
20
35.814775410000024
42
0.41421356237309503
10
-102.88710423000001
20
36.314775410000024
10
-102.88710422999999
20
49.31477541000001
42
0.41421356237311063
10
-103.38710423000002
20
49.814775410000031
10
-116.38710422999999
20
49.814775410000024
42
0.41421356237309503
10
-116.88710423000001
20
49.314775410000024
10
-116.88710422999998
20
36.314775410000038
42
0.4142135623730846
10
-116.38710422999999
20
35.814775410000031
0
LWPOLYLINE
5
131
100
AcDbEntity
8
0
100
AcDbPolyline
90
8
70
1
43
0.0
10
-135.93710422999999
20
36.314775410000031
10
-135.93710422999999
20
49.314775410000031
42
-0.41421356237309503
10
-135.43710422999999
20
49.814775410000031
10
-122.43710422999999
20
49.814775410000031
42
-0.41421356237309503
10
-121.93710422999999
20
49.314775410000024
10
-121.93710422999999
20
36.314775410000031
42
-0.41421356237309503
10
-122.43710422999999
20
35.814775410000038
10
-135.43710422999999
20
35.814775410000045
42
-0.4142135623730846
0
LWPOLYLINE
5
132
100
AcDbEntity
8
0
100
AcDbPolyline
90
8
70
1
43
0.0
10
-141.48710423
20
35.814775410000038
42
0.41421356237309503
10
-140.98710423
20
36.314775410000031
10
-140.98710423
20
49.314775410000031
42
0.41421356237309503
10
-141.48710423
20
49.814775410000031
10
-154.48710423
20
49.814775410000031
42
0.41421356237309503
10
-154.98710423
20
49.314775410000031
10
-154.98710422999997
20
36.314775410000038
42
0.4142135623730846
10
-154.48710423
20
35.814775410000067
0
LWPOLYLINE
5
133
100
AcDbEntity
8
0
100
AcDbPolyline
90
8
70
1
43
0.0
10
-173.53710422999995
20
49.814775410000031
42
0.41421356237309503
10
-174.03710422999995
20
49.314775410000031
10
-174.03710423000001
20
36.314775410000038
42
0.41421356237309503
10
-173.53710422999995
20
35.814775409999996
10
-160.53710422999998
20
35.814775410000045
42
0.41421356237309503
10
-160.03710422999998
20
36.314775410000038
10
-160.03710423000001
20
49.314775410000031
42
0.41421356237309503
10
-160.53710422999998
20
49.814775410000031
0
LWPOLYLINE
5
134
100
AcDbEntity
8
0
100
AcDbPolyline
90
8
70
1
43
0.0
10
-179.58710422999999
20
35.814775410000045
42
0.41421356237309503
10
-179.08710422999999
20
36.314775410000038
10
-179.08710423000002
20
49.314775410000031
42
0.41421356237309503
10
-179.58710422999999
20
49.814775410000031
10
-192.58710423000002
20
49.814775410000038
42
0.41421356237309503
10
-193.08710423000005
20
49.314775410000038
10
-193.08710423000002
20
36.314775410000045
42
0.41421356237309503
10
-192.58710423000002
20
35.814775410000045
0
LWPOLYLINE
5
135
100
AcDbEntity
8
0
100
AcDbPolyline
90
8
70
1
43
0.0
10
-211.63710422999998
20
49.814775410000045
42
0.41421356237309503
10
-212.13710422999998
20
49.314775410000053
10
-212.13710423000003
20
36.314775410000053
42
0.41421356237309503
10
-211.63710422999998
20
35.81477541000001
10
-198.63710423000001
20
35.814775410000053
42
0.41421356237309503
10
-198.13710422999998
20
36.314775410000053
10
-198.13710422999998
20
49.314775410000038
42
0.41421356237309503
10
-198.63710423000001
20
49.814775410000081
0
LWPOLYLINE
5
136
100
AcDbEntity
8
0
100
AcDbPolyline
90
8
70
1
43
0.0
10
-217.68710423000002
20
35.814775410000053
42
0.41421356237309503
10
-217.18710423000002
20
36.314775410000053
10
-217.18710422999999
20
49.314775410000053
42
0.41421356237309503
10
-217.68710423000002
20
49.814775410000045
10
-230.68710422999999
20
49.814775410000045
42
0.41421356237309503
10
-231.18710423000005
20
49.314775410000053
10
-231.18710423000005
20
36.314775410000053
42
0.41421356237309503
10
-230.68710422999999
20
35.81477541000001
0
LWPOLYLINE
5
137
100
AcDbEntity
8
0
100
AcDbPolyline
90
8
70
1
43
0.0
10
-259.76210422999998
20
36.31477541000006
10
-259.76210423000003
20
49.314775410000053
42
-0.41421356237309503
10
-259.26210422999998
20
49.814775410000067
10
-246.26210422999998
20
49.814775410000024
42
-0.41421356237309503
10
-245.76210422999998
20
49.314775410000053
10
-245.76210422999995
20
36.31477541000006
42
-0.41421356237309503
10
-246.26210422999998
20
35.81477541000006
10
-259.26210422999998
20
35.814775410000088
42
-0.41421356237309503
0
LWPOLYLINE
5
138
100
AcDbEntity
8
0
100
AcDbPolyline
90
8
70
1
43
0.0
10
11.412895769999995
20
25.50227541000001
42
0.41421356237309503
10
10.912895769999995
20
26.002275410000006
10
-2.0871042300000031
20
26.002275410000006
42
0.41421356237309437
10
-2.5871042299999658
20
25.50227541000001
10
-2.5871042300000004
20
12.50227541000001
42
0.41421356237309959
10
-2.0871042299999942
20
12.002275410000012
10
10.912895769999997
20
12.002275410000005
42
0.41421356237309243
10
11.41289577000002
20
12.502275410000001
0
LWPOLYLINE
5
139
100
AcDbEntity
8
0
100
AcDbPolyline
90
8
70
1
43
0.0
10
-212.92460423
20
73.914775410000061
42
0.41421356237308982
10
-212.42460423
20
74.414775410000047
10
-212.42460422999997
20
87.414775410000061
42
0.41421356237309503
10
-212.92460423
20
87.914775410000061
10
-225.92460423
20
87.914775410000061
42
0.41421356237309503
10
-226.42460423000003
20
87.414775410000061
10
-226.42460423000003
20
74.414775410000061
42
0.41421356237309503
10
-225.92460423
20
73.914775410000018
0
LWPOLYLINE
5
140
100
AcDbEntity
8
0
100
AcDbPolyline
90
8
70
1
43
0.0
10
-257.38085423000001
20
74.414775410000061
42
0.41421356237309503
10
-256.88085423000007
20
73.91477541000009
10
-243.88085423000001
20
73.914775410000061
42
0.41421356237309503
10
-243.38085423000001
20
74.414775410000061
10
-243.38085423000001
20
87.414775410000061
42
0.41421356237309503
10
-243.88085423000001
20
87.914775410000061
10
-256.88085423000007
20
87.914775410000061
42
0.41421356237309503
10
-257.38085423000001
20
87.414775410000061
0
LWPOLYLINE
5
141
100
AcDbEntity
8
0
100
AcDbPolyline
90
8
70
1
43
0.0
10
-117.17460422999999
20
87.414775410000018
10
-117.17460423000003
20
74.414775410000033
42
-0.41421356237309503
10
-117.67460423000001
20
73.914775410000033
10
-130.67460423
20
73.914775410000018
42
-0.41421356237309503
10
-131.17460423
20
74.414775410000033
10
-131.17460423
20
87.414775410000018
42
-0.41421356237309503
10
-130.67460423
20
87.914775410000033
10
-117.67460423000003
20
87.914775410000047
42
-0.41421356237310542
0
LWPOLYLINE
5
142
100
AcDbEntity
8
0
100
AcDbPolyline
90
8
70
1
43
0.0
10
-207.37460423000002
20
74.414775410000047
42
0.41421356237309503
10
-206.87460422999999
20
73.914775410000004
10
-193.87460422999999
20
73.914775410000047
42
0.41421356237309503
10
-193.37460422999996
20
74.414775410000047
10
-193.37460422999996
20
87.414775410000061
42
0.41421356237309503
10
-193.87460422999999
20
87.914775410000061
10
-206.87460422999999
20
87.914775410000061
42
0.41421356237309503
10
-207.37460422999999
20
87.414775410000061
0
LWPOLYLINE
5
143
100
AcDbEntity
8
0
100
AcDbPolyline
90
8
70
1
43
0.0
10
-187.82460422999998
20
87.914775410000033
42
0.41421356237309503
10
-188.32460422999992
20
87.414775410000061
10
-188.32460423000001
20
74.414775410000047
42
0.41421356237309503
10
-187.82460422999998
20
73.914775410000047
10
-174.82460422999998
20
73.914775410000047
42
0.41421356237309503
10
-174.32460422999995
20
74.414775410000047
10
-174.32460422999995
20
87.414775410000061
42
0.41421356237309503
10
-174.82460422999998
20
87.91477541000009
0
LWPOLYLINE
5
144
100
AcDbEntity
8
0
100
AcDbPolyline
90
8
70
1
43
0.0
10
-136.72460422999995
20
73.914775410000033
10
-149.72460423000001
20
73.914775410000033
42
-0.4142135623730846
10
-150.22460423000001
20
74.414775410000033
10
-150.22460422999998
20
87.414775410000033
42
-0.41421356237309503
10
-149.72460422999998
20
87.914775410000033
10
-136.72460422999995
20
87.914775410000047
42
-0.4142135623730846
10
-136.22460422999998
20
87.414775410000033
10
-136.22460423000001
20
74.414775410000033
42
-0.4142135623730846
0
LWPOLYLINE
5
145
100
AcDbEntity
8
0
100
AcDbPolyline
90
8
70
1
43
0.0
10
-155.77460422999997
20
73.914775410000033
10
-168.77460423000002
20
73.914775410000061
42
-0.41421356237309503
10
-169.27460422999999
20
74.414775410000033
10
-169.27460423000002
20
87.414775410000033
42
-0.41421356237309503
10
-168.77460423000002
20
87.914775410000047
10
-155.77460422999997
20
87.914775410000004
42
-0.41421356237310542
10
-155.27460422999999
20
87.414775410000033
10
-155.27460422999997
20
74.414775410000033
42
-0.41421356237310542
0
LWPOLYLINE
5
146
100
AcDbEntity
8
0
100
AcDbPolyline
90
8
70
1
43
0.0
10
-50.999604229999996
20
92.964775410000016
42
0.41421356237309503
10
-50.499604230000024
20
93.464775409999987
10
-50.49960423000001
20
106.46477540999999
42
0.4142135623730846
10
-50.999604229999989
20
106.96477541
10
-63.999604230000003
20
106.96477541
42
0.41421356237309503
10
-64.499604230000003
20
106.46477540999999
10
-64.499604229999989
20
93.464775409999987
42
0.41421356237309503
10
-63.999604229999996
20
92.964775409999987
0
LWPOLYLINE
5
147
100
AcDbEntity
8
0
100
AcDbPolyline
90
8
70
1
43
0.0
10
-22.431354230000018
20
108.96477540999999
10
-16.431354230000004
20
108.96477540999999
42
-0.41421356237309503
10
-15.931354230000006
20
108.46477540999999
10
-15.931354229999997
20
93.464775409999987
42
-0.41421356237309503
10
-16.431354230000004
20
92.964775409999987
10
-22.431354230000018
20
92.964775409999987
42
-0.41421356237308721
10
-22.931354230000007
20
93.464775409999987
10
-22.931354230000011
20
108.46477540999999
42
-0.41421356237308721
0
LWPOLYLINE
5
148
100
AcDbEntity
8
0
100
AcDbPolyline
90
8
70
1
43
0.0
10
-235.44285422999997
20
73.914775410000061
42
0.41421356237309503
10
-234.94285422999997
20
74.414775410000061
10
-234.94285423000002
20
89.414775410000047
42
0.41421356237309503
10
-235.44285422999997
20
89.914775410000061
10
-241.44285422999999
20
89.914775410000061
42
0.41421356237309503
10
-241.94285423000002
20
89.414775410000047
10
-241.94285423000002
20
74.414775410000061
42
0.41421356237309503
10
-241.44285422999999
20
73.914775410000061
0
LWPOLYLINE
5
149
100
AcDbEntity
8
0
100
AcDbPolyline
90
8
70
1
43
0.0
10
-31.949604230000006
20
92.964775409999987
42
0.41421356237309503
10
-31.449604229999998
20
93.464775409999987
10
-31.449604230000006
20
106.46477540999999
42
0.41421356237310025
10
-31.949604230000013
20
106.96477541
10
-44.949604230000013
20
106.96477541
42
0.41421356237309503
10
-45.449604230000027
20
106.46477540999999
10
-45.449604229999998
20
93.464775409999987
42
0.4142135623730846
10
-44.94960423000002
20
92.964775409999987
0
LWPOLYLINE
5
150
100
AcDbEntity
8
0
100
AcDbPolyline
90
8
70
1
43
0.0
10
-284.36210423
20
73.914775410000061
10
-297.36210423
20
73.914775410000104
42
-0.41421356237309503
10
-297.86210423
20
74.414775410000075
10
-297.86210423
20
87.414775410000075
42
-0.41421356237309503
10
-297.36210423
20
87.914775410000061
10
-284.36210423
20
87.914775410000033
42
-0.41421356237309503
10
-283.86210423
20
87.414775410000061
10
-283.86210423
20
74.414775410000061
42
-0.41421356237309503
0
LWPOLYLINE
5
151
100
AcDbEntity
8
0
100
AcDbPolyline
90
8
70
1
43
0.0
10
-0.99335422999999423
20
92.964775409999987
10
-13.993354230000001
20
92.964775409999987
42
-0.41421356237309503
10
-14.49335423
20
93.464775409999987
10
-14.493354230000008
20
106.46477540999999
42
-0.41421356237309503
10
-13.993354230000001
20
106.96477541
10
-0.99335422999999423
20
106.96477541
42
-0.41421356237308787
10
-0.49335423000000822
20
106.46477540999999
10
-0.49335422999999934
20
93.464775409999987
42
-0.41421356237308787
0
LWPOLYLINE
5
152
100
AcDbEntity
8
0
100
AcDbPolyline
90
8
70
1
43
0.0
10
-265.81885423000006
20
74.414775410000061
10
-265.81885423
20
89.414775410000047
42
-0.41421356237309503
10
-265.31885423
20
89.914775410000061
10
-259.31885423000006
20
89.91477541000009
42
-0.41421356237309503
10
-258.81885423
20
89.414775410000047
10
-258.81885423000006
20
74.414775410000061
42
-0.41421356237309503
10
-259.31885423000006
20
73.914775410000061
10
-265.31885423
20
73.914775410000018
42
-0.41421356237309503
0
LWPOLYLINE
5
153
100
AcDbEntity
8
0
100
AcDbPolyline
90
8
70
1
43
0.0
10
7.4446457700000224
20
92.964775409999987
10
1.4446457700000082
20
92.964775409999987
42
-0.41421356237310347
10
0.94464576999999328
20
93.464775409999987
10
0.94464576999998662
20
108.46477540999999
42
-0.41421356237309503
10
1.4446457699999937
20
108.96477540999999
10
7.4446457700000224
20
108.96477540999999
42
-0.41421356237307683
10
7.9446457699999922
20
108.46477540999999
10
7.9446457699999993
20
93.464775409999987
42
-0.41421356237307749
0
LWPOLYLINE
5
154
100
AcDbEntity
8
0
100
AcDbPolyline
90
8
70
1
43
0.0
10
-89.099604229999997
20
92.964775410000016
42
0.41421356237309503
10
-88.599604230000025
20
93.464775409999987
10
-88.599604229999983
20
106.46477540999999
42
0.41421356237310542
10
-89.099604230000011
20
106.96477541
10
-102.09960422999998
20
106.96477541
42
0.41421356237309503
10
-102.59960422999998
20
106.46477540999999
10
-102.59960422999998
20
93.464775410000016
42
0.41421356237309503
10
-102.09960422999998
20
92.964775410000016
0
LWPOLYLINE
5
155
100
AcDbEntity
8
0
100
AcDbPolyline
90
8
70
1
43
0.0
10
-159.24960422999999
20
106.96477541000004
42
0.41421356237309503
10
-159.74960423000002
20
106.46477541000003
10
-159.74960422999996
20
93.464775410000016
42
0.4142135623730846
10
-159.24960423000002
20
92.964775410000016
10
-146.24960422999999
20
92.964775410000016
42
0.41421356237309503
10
-145.74960422999999
20
93.464775410000016
10
-145.74960422999999
20
106.46477541000003
42
0.4142135623730846
10
-146.24960422999999
20
106.96477541000004
0
LWPOLYLINE
5
156
100
AcDbEntity
8
0
100
AcDbPolyline
90
8
70
1
43
0.0
10
-184.34960423000001
20
92.964775410000044
10
-197.34960422999995
20
92.964775409999987
42
-0.41421356237309503
10
-197.84960423000001
20
93.464775410000016
10
-197.84960422999998
20
106.46477541000003
42
-0.41421356237309503
10
-197.34960422999995
20
106.96477541000004
10
-184.34960423000001
20
106.96477541000007
42
-0.41421356237309503
10
-183.84960422999995
20
106.46477541000003
10
-183.84960423000001
20
93.464775410000016
42
-0.41421356237309503
0
LWPOLYLINE
5
157
100
AcDbEntity
8
0
100
AcDbPolyline
90
8
70
1
43
0.0
10
-203.39960423000002
20
92.964775410000044
10
-216.39960422999997
20
92.964775409999987
42
-0.41421356237309503
10
-216.89960423000002
20
93.464775410000016
10
-216.89960422999999
20
106.46477541000003
42
-0.41421356237309503
10
-216.39960422999997
20
106.96477541000004
10
-203.39960423000002
20
106.96477541000007
42
-0.41421356237309503
10
-202.89960422999997
20
106.46477541000003
10
-202.89960423000002
20
93.464775410000016
42
-0.41421356237309503
0
LWPOLYLINE
5
158
100
AcDbEntity
8
0
100
AcDbPolyline
90
8
70
1
43
0.0
10
-126.69960422999999
20
106.46477541000003
10
-126.69960422999998
20
93.464775410000016
42
-0.41421356237309503
10
-127.19960422999998
20
92.964775410000016
10
-140.19960423000001
20
92.96477541000003
42
-0.4142135623730846
10
-140.69960422999998
20
93.464775410000016
10
-140.69960423000001
20
106.46477541000003
42
-0.41421356237309503
10
-140.19960422999998
20
106.96477541000004
10
-127.19960422999996
20
106.96477541000002
42
-0.4142135623730846
0
LWPOLYLINE
5
159
100
AcDbEntity
8
0
100
AcDbPolyline
90
8
70
1
43
0.0
10
-165.29960423
20
92.964775410000016
42
0.41421356237309503
10
-164.79960422999997
20
93.464775410000016
10
-164.79960423
20
106.46477541000003
42
0.41421356237309503
10
-165.29960423
20
106.96477541000004
10
-178.29960423000003
20
106.96477541000004
42
0.41421356237309503
10
-178.79960423000003
20
106.46477541000003
10
-178.79960423
20
93.464775410000016
42
0.41421356237309503
10
-178.29960423000003
20
92.964775410000044
0
LWPOLYLINE
5
160
100
AcDbEntity
8
0
100
AcDbPolyline
90
8
70
1
43
0.0
10
-121.64960422999999
20
93.464775410000016
10
-121.64960422999999
20
106.46477541000003
42
-0.41421356237309503
10
-121.14960422999999
20
106.96477541000004
10
-108.14960423000002
20
106.96477541
42
-0.41421356237310542
10
-107.64960422999999
20
106.46477540999999
10
-107.64960422999999
20
93.464775410000016
42
-0.41421356237309503
10
-108.14960423000001
20
92.964775410000016
10
-121.14960422999999
20
92.964775410000016
42
-0.41421356237309503
0
LWPOLYLINE
5
161
100
AcDbEntity
8
0
100
AcDbPolyline
90
8
70
1
43
0.0
10
-83.049604229999986
20
106.96477541
42
0.41421356237309503
10
-83.54960423
20
106.46477540999999
10
-83.54960423
20
93.464775409999987
42
0.41421356237310542
10
-83.049604229999971
20
92.964775409999987
10
-70.049604229999986
20
92.964775409999987
42
0.41421356237309503
10
-69.54960423
20
93.464775409999987
10
-69.54960423
20
106.46477540999999
42
0.41421356237309503
10
-70.04960423
20
106.96477541
0
LWPOLYLINE
5
162
100
AcDbEntity
8
0
100
AcDbPolyline
90
8
70
1
43
0.0
10
-242.59335423000005
20
106.96477541000004
42
0.41421356237309503
10
-243.09335423000005
20
106.46477541000003
10
-243.09335422999999
20
93.464775410000016
42
0.41421356237309503
10
-242.59335423000005
20
92.964775410000016
10
-229.59335422999999
20
92.964775410000016
42
0.41421356237309503
10
-229.09335423000002
20
93.464775410000016
10
-229.09335423000002
20
106.46477541000003
42
0.41421356237309503
10
-229.59335422999999
20
106.96477541000004
0
LWPOLYLINE
5
163
100
AcDbEntity
8
0
100
AcDbPolyline
90
8
70
1
43
0.0
10
-39.09335423000001
20
112.01477541
42
0.41421356237309503
10
-38.593354230000003
20
112.51477541
10
-38.59335423000001
20
125.51477541
42
0.41421356237310025
10
-39.093354230000017
20
126.01477541000001
10
-52.093354230000003
20
126.01477541000001
42
0.41421356237309503
10
-52.593354230000031
20
125.51477541
10
-52.593354230000003
20
112.51477541
42
0.41421356237310542
10
-52.093354229999989
20
112.01477541
0
LWPOLYLINE
5
164
100
AcDbEntity
8
0
100
AcDbPolyline
90
8
70
1
43
0.0
10
-273.54960423
20
111.72727541000008
10
-260.54960423000006
20
111.72727541000008
42
-0.41421356237309503
10
-260.04960423
20
111.22727541000003
10
-260.04960423000006
20
98.227275410000061
42
-0.41421356237309503
10
-260.54960423000006
20
97.727275410000061
10
-273.54960423
20
97.72727541000009
42
-0.41421356237309503
10
-274.04960423
20
98.227275410000061
10
-274.04960423
20
111.22727541000006
42
-0.41421356237309503
0
LWPOLYLINE
5
165
100
AcDbEntity
8
0
100
AcDbPolyline
90
8
70
1
43
0.0
10
-110.03085423000002
20
125.51477541
10
-110.03085422999999
20
112.51477541
42
-0.41421356237309503
10
-110.53085422999999
20
112.01477541
10
-123.53085422999999
20
112.01477541000003
42
-0.41421356237309503
10
-124.03085423
20
112.51477541000003
10
-124.03085423
20
125.51477541
42
-0.41421356237309503
10
-123.53085422999999
20
126.01477541000001
10
-110.53085422999999
20
126.01477540999997
42
-0.41421356237309503
0
LWPOLYLINE
5
166
100
AcDbEntity
8
0
100
AcDbPolyline
90
8
70
1
43
0.0
10
-70.530854230000003
20
112.51477541
42
0.41421356237309503
10
-70.030854230000003
20
112.01477541
10
-64.030854230000003
20
112.01477541
42
0.41421356237309503
10
-63.530854229999996
20
112.51477541
10
-63.530854230000003
20
127.51477541
42
0.41421356237309503
10
-64.030854230000003
20
128.01477541
10
-70.030854230000003
20
128.01477541
42
0.41421356237309503
10
-70.530854229999989
20
127.51477541
0
LWPOLYLINE
5
167
100
AcDbEntity
8
0
100
AcDbPolyline
90
8
70
1
43
0.0
10
-4.9683542300000028
20
112.51477541
10
-4.9683542300000161
20
125.51477540999997
42
-0.41421356237309503
10
-4.468354230000009
20
126.01477540999997
10
8.5316457700000115
20
126.01477540999997
42
-0.41421356237308332
10
9.0316457699999901
20
125.51477540999997
10
9.031645769999999
20
112.51477541
42
-0.41421356237309503
10
8.5316457699999919
20
112.01477541
10
-4.4683542300000312
20
112.01477541000001
42
-0.41421356237308071
0
LWPOLYLINE
5
168
100
AcDbEntity
8
0
100
AcDbPolyline
90
8
70
1
43
0.0
10
-283.86210423
20
106.46477541000007
42
0.41421356237309503
10
-284.36210423
20
106.96477541000004
10
-297.36210423
20
106.96477541000007
42
0.41421356237309503
10
-297.86210423
20
106.46477541000007
10
-297.86210423
20
93.464775410000058
42
0.41421356237309503
10
-297.36210423
20
92.964775410000087
10
-284.36210423
20
92.964775410000044
42
0.41421356237309503
10
-283.86210423
20
93.464775410000058
0
LWPOLYLINE
5
169
100
AcDbEntity
8
0
100
AcDbPolyline
90
8
70
1
43
0.0
10
-15.280854230000003
20
112.01477541
10
-28.28085423000001
20
112.01477541
42
-0.41421356237308982
10
-28.780854229999999
20
112.51477541
10
-28.78085423000001
20
125.51477540999997
42
-0.41421356237309503
10
-28.280854230000003
20
126.01477540999997
10
-15.280854230000003
20
126.01477540999997
42
-0.41421356237309503
10
-14.780854230000005
20
125.51477540999997
10
-14.780854229999996
20
112.51477541
42
-0.41421356237309503
0
LWPOLYLINE
5
170
100
AcDbEntity
8
0
100
AcDbPolyline
90
8
70
1
43
0.0
10
-260.04960423
20
130.27727541000004
42
0.41421356237309503
10
-260.54960423000006
20
130.77727541000007
10
-273.54960423
20
130.77727541000004
42
0.41421356237309503
10
-274.04960423
20
130.27727541000004
10
-274.04960423
20
117.27727541000007
42
0.41421356237309503
10
-273.54960423
20
116.77727541000007
10
-260.54960423000006
20
116.77727541000003
42
0.41421356237309503
10
-260.04960423000006
20
117.27727541000004
0
LWPOLYLINE
5
171
100
AcDbEntity
8
0
100
AcDbPolyline
90
8
70
1
43
0.0
10
-198.13710422999998
20
125.51477541000004
10
-198.13710423000001
20
112.51477541000003
42
-0.41421356237309503
10
-198.63710423000001
20
112.01477541000003
10
-211.63710422999998
20
112.01477541
42
-0.41421356237309503
10
-212.13710423000003
20
112.51477541000003
10
-212.13710422999998
20
125.51477541000004
42
-0.41421356237309503
10
-211.63710422999998
20
126.01477541000006
10
-198.63710423000001
20
126.01477541000008
42
-0.41421356237309503
0
LWPOLYLINE
5
172
100
AcDbEntity
8
0
100
AcDbPolyline
90
8
70
1
43
0.0
10
-164.03085422999999
20
112.01477541000003
42
0.41421356237309503
10
-163.53085422999999
20
112.51477541000003
10
-163.53085422999996
20
127.51477541000003
42
0.41421356237309503
10
-164.03085422999999
20
128.01477541000003
10
-170.03085423000002
20
128.01477541000003
42
0.41421356237309503
10
-170.53085422999999
20
127.51477541000003
10
-170.53085422999999
20
112.51477541000003
42
0.41421356237309503
10
-170.03085423000002
20
112.01477541000003
0
LWPOLYLINE
5
173
100
AcDbEntity
8
0
100
AcDbPolyline
90
8
70
1
43
0.0
10
-240.99960422999999
20
130.27727541000004
10
-240.99960423000002
20
117.27727541000004
42
-0.41421356237309503
10
-241.49960423000005
20
116.77727541000003
10
-254.49960422999999
20
116.77727541000007
42
-0.41421356237309503
10
-254.99960422999999
20
117.27727541000004
10
-254.99960423000002
20
130.27727541000004
42
-0.41421356237309503
10
-254.49960422999999
20
130.77727541000004
10
-241.49960423000005
20
130.77727541000007
42
-0.41421356237309503
0
LWPOLYLINE
5
174
100
AcDbEntity
8
0
100
AcDbPolyline
90
8
70
1
43
0.0
10
-279.09960423000001
20
130.27727541000004
10
-279.09960423000007
20
117.27727541000007
42
-0.41421356237309503
10
-279.59960423000007
20
116.77727541000007
10
-292.59960423000001
20
116.7772754100001
42
-0.41421356237309503
10
-293.09960423000001
20
117.27727541000007
10
-293.09960423000001
20
130.27727541000004
42
-0.41421356237309503
10
-292.59960423000001
20
130.77727541000004
10
-279.59960423000007
20
130.77727541000007
42
-0.41421356237309503
0
LWPOLYLINE
5
175
100
AcDbEntity
8
0
100
AcDbPolyline
90
8
70
1
43
0.0
10
-231.18710423000005
20
112.51477541000003
10
-231.18710422999999
20
125.51477541000004
42
-0.41421356237309503
10
-230.68710422999999
20
126.01477541000006
10
-217.68710423000002
20
126.01477541000008
42
-0.41421356237309503
10
-217.18710422999999
20
125.51477541000004
10
-217.18710423000002
20
112.51477541000003
42
-0.41421356237309503
10
-217.68710423000002
20
112.01477541000003
10
-230.68710422999999
20
112.01477541
42
-0.41421356237309503
0
LWPOLYLINE
5
176
100
AcDbEntity
8
0
100
AcDbPolyline
90
8
70
1
43
0.0
10
-192.58710423000002
20
126.01477541000001
42
0.41421356237307422
10
-193.08710423000005
20
125.51477541000004
10
-193.08710423000002
20
112.51477541000003
42
0.41421356237309503
10
-192.58710423000002
20
112.01477541000006
10
-179.58710422999999
20
112.01477541000003
42
0.41421356237309503
10
-179.08710423000002
20
112.51477541000003
10
-179.08710423000002
20
125.51477541
42
0.41421356237309503
10
-179.58710422999999
20
126.01477541000001
0
LWPOLYLINE
5
177
100
AcDbEntity
8
0
100
AcDbPolyline
90
8
70
1
43
0.0
10
-264.02460423000002
20
68.864775410000064
42
0.41421356237309503
10
-264.52460423000002
20
68.364775410000064
10
-264.52460422999997
20
55.364775410000064
42
0.41421356237309503
10
-264.02460423000002
20
54.864775410000092
10
-251.02460422999997
20
54.864775410000057
42
0.41421356237309503
10
-250.52460422999999
20
55.364775410000064
10
-250.52460422999999
20
68.36477541000005
42
0.41421356237309503
10
-251.02460422999997
20
68.86477541000005
0
LWPOLYLINE
5
178
100
AcDbEntity
8
0
100
AcDbPolyline
90
8
70
1
43
0.0
10
-245.42460423
20
54.864775410000057
10
-246.42460423000003
20
54.864775410000092
42
-0.41421356237309503
10
-246.92460423
20
55.364775410000064
10
-246.92460423000003
20
68.36477541000005
42
-0.41421356237309503
10
-246.42460423000003
20
68.864775410000064
10
-245.42460423
20
68.864775410000021
42
-0.41421356237309503
10
-244.92460423000006
20
68.36477541000005
10
-244.92460423
20
55.364775410000064
42
-0.41421356237309503
0
LWPOLYLINE
5
179
100
AcDbEntity
8
0
100
AcDbPolyline
90
8
70
1
43
0.0
10
-112.12460422999999
20
74.414775410000033
42
0.41421356237309503
10
-111.62460422999999
20
73.914775410000018
10
-98.624604230000003
20
73.914775410000033
42
0.41421356237309503
10
-98.124604230000017
20
74.414775410000033
10
-98.124604229999989
20
87.414775410000018
42
0.41421356237310542
10
-98.624604230000017
20
87.914775410000033
10
-111.62460422999999
20
87.914775410000033
42
0.41421356237309503
10
-112.12460422999999
20
87.414775410000018
0
LWPOLYLINE
5
180
100
AcDbEntity
8
0
100
AcDbPolyline
90
8
70
1
43
0.0
10
-74.024604230000008
20
74.414775410000018
10
-74.024604229999994
20
87.414775410000018
42
-0.41421356237309503
10
-73.524604229999994
20
87.914775410000004
10
-60.524604229999994
20
87.914775410000033
42
-0.41421356237308982
10
-60.024604230000008
20
87.414775410000018
10
-60.024604230000008
20
74.414775410000018
42
-0.41421356237309503
10
-60.524604230000001
20
73.914775410000018
10
-73.524604229999994
20
73.914775410000018
42
-0.41421356237309503
0
LWPOLYLINE
5
181
100
AcDbEntity
8
0
100
AcDbPolyline
90
8
70
1
43
0.0
10
-40.974604230000004
20
87.414775410000018
42
0.41421356237309503
10
-41.474604229999997
20
87.914775410000033
10
-54.47460422999999
20
87.914775410000033
42
0.41421356237309503
10
-54.974604229999997
20
87.414775410000018
10
-54.97460422999999
20
74.414775410000018
42
0.41421356237309503
10
-54.47460422999999
20
73.914775410000018
10
-41.474604229999997
20
73.914775410000018
42
0.41421356237309503
10
-40.974604230000011
20
74.414775410000004
0
LWPOLYLINE
5
182
100
AcDbEntity
8
0
100
AcDbPolyline
90
8
70
1
43
0.0
10
-270.01210422999998
20
49.31477541000006
42
0.41421356237309503
10
-270.51210422999998
20
49.814775410000102
10
-271.51210423000003
20
49.814775410000053
42
0.41421356237309503
10
-272.01210422999998
20
49.31477541000006
10
-272.01210422999998
20
36.314775410000067
42
0.41421356237309503
10
-271.51210423000003
20
35.814775410000067
10
-270.51210422999998
20
35.814775410000067
42
0.41421356237309503
10
-270.01210422999998
20
36.314775410000067
0
LWPOLYLINE
5
183
100
AcDbEntity
8
0
100
AcDbPolyline
90
8
70
1
43
0.0
10
-297.36210423
20
49.814775410000067
42
0.41421356237309503
10
-297.86210423000006
20
49.314775410000067
10
-297.86210423
20
36.314775410000067
42
0.41421356237309503
10
-297.36210423
20
35.814775410000095
10
-284.36210423
20
35.814775410000067
42
0.41421356237309503
10
-283.86210423
20
36.314775410000067
10
-283.86210423
20
49.314775410000067
42
0.41421356237309503
10
-284.36210423
20
49.814775410000038
0
LWPOLYLINE
5
184
100
AcDbEntity
8
0
100
AcDbPolyline
90
8
70
1
43
0.0
10
-6.849604230000006
20
68.864775410000007
42
0.41421356237309503
10
-7.3496042300000131
20
68.364775409999993
10
-7.3496042300000042
20
55.364775410000007
42
0.41421356237310025
10
-6.8496042299999971
20
54.86477541
10
6.150395769999994
20
54.86477541
42
0.41421356237309503
10
6.6503957700000171
20
55.36477541
10
6.6503957699999949
20
68.364775409999993
42
0.41421356237310675
10
6.1503957699999745
20
68.864775409999993
0
LWPOLYLINE
5
185
100
AcDbEntity
8
0
100
AcDbPolyline
90
8
70
1
43
0.0
10
10.750395769999994
20
68.864775409999993
42
0.41421356237309503
10
10.250395769999995
20
68.364775409999993
10
10.250395769999994
20
55.36477541
42
0.41421356237308854
10
10.750395769999983
20
54.86477541
10
11.750395769999995
20
54.86477541
42
0.41421356237309503
10
12.250395769999969
20
55.36477541
10
12.250395769999995
20
68.364775409999993
42
0.41421356237309243
10
11.750395769999997
20
68.864775409999993
0
LWPOLYLINE
5
186
100
AcDbEntity
8
0
100
AcDbPolyline
90
8
70
1
43
0.0
10
-11.449604230000006
20
54.86477541
42
0.41421356237309503
10
-10.949604229999998
20
55.364775410000007
10
-10.949604230000007
20
68.364775409999993
42
0.41421356237309503
10
-11.449604230000006
20
68.864775409999993
10
-12.449604230000002
20
68.864775409999993
42
0.41421356237308982
10
-12.949604229999991
20
68.364775410000007
10
-12.949604229999995
20
55.364775410000007
42
0.4142135623730846
10
-12.44960423000002
20
54.86477541
0
LWPOLYLINE
5
187
100
AcDbEntity
8
0
100
AcDbPolyline
90
8
70
1
43
0.0
10
-30.662104230000004
20
68.864775410000021
42
0.41421356237309503
10
-31.162104230000011
20
68.364775410000007
10
-31.162104229999997
20
55.364775410000007
42
0.41421356237308721
10
-30.662104230000011
20
54.864775410000007
10
-17.662104230000001
20
54.86477541
42
0.41421356237309503
10
-17.162104229999997
20
55.364775410000007
10
-17.162104230000004
20
68.364775410000007
42
0.41421356237309503
10
-17.662104230000004
20
68.864775410000007
0
LWPOLYLINE
5
188
100
AcDbEntity
8
0
100
AcDbPolyline
90
8
70
1
43
0.0
10
-68.762104230000006
20
68.864775410000021
10
-55.762104229999991
20
68.864775410000021
42
-0.41421356237308982
10
-55.262104230000006
20
68.364775410000021
10
-55.262104230000013
20
55.364775410000007
42
-0.41421356237309503
10
-55.762104229999998
20
54.864775410000021
10
-68.762104230000006
20
54.864775410000028
42
-0.41421356237310025
10
-69.262104229999991
20
55.364775410000021
10
-69.262104229999991
20
68.364775410000021
42
-0.41421356237308982
0
LWPOLYLINE
5
189
100
AcDbEntity
8
0
100
AcDbPolyline
90
8
70
1
43
0.0
10
-36.212104230000008
20
68.364775410000007
10
-36.212104230000001
20
55.364775410000007
42
-0.41421356237309503
10
-36.712104229999994
20
54.864775410000007
10
-49.712104229999987
20
54.86477541
42
-0.41421356237310025
10
-50.212104230000001
20
55.364775410000007
10
-50.212104230000001
20
68.364775410000007
42
-0.41421356237309503
10
-49.712104229999994
20
68.864775410000021
10
-36.71210422999998
20
68.864775409999993
42
-0.4142135623730846
0
LWPOLYLINE
5
190
100
AcDbEntity
8
0
100
AcDbPolyline
90
8
70
1
43
0.0
10
-237.82410423000002
20
35.81477541000006
42
0.41421356237309503
10
-237.32410423000002
20
36.314775410000053
10
-237.32410422999999
20
51.314775410000053
42
0.41421356237309503
10
-237.82410423000002
20
51.814775410000053
10
-243.82410423000005
20
51.81477541000006
42
0.41421356237309503
10
-244.32410423000005
20
51.314775410000053
10
-244.32410422999999
20
36.31477541000006
42
0.41421356237309503
10
-243.82410423000005
20
35.814775410000088
0
LWPOLYLINE
5
191
100
AcDbEntity
8
0
100
AcDbPolyline
90
8
70
1
43
0.0
10
-267.70010422999997
20
51.81477541000006
42
0.41421356237309503
10
-268.20010422999997
20
51.31477541000006
10
-268.20010422999997
20
36.314775410000067
42
0.41421356237309764
10
-267.70010422999997
20
35.81477541000006
10
-261.70010423000002
20
35.81477541000006
42
0.41421356237309503
10
-261.20010422999997
20
36.31477541000006
10
-261.20010422999997
20
51.314775410000053
42
0.41421356237309503
10
-261.70010423000002
20
51.81477541000006
0
LWPOLYLINE
5
192
100
AcDbEntity
8
0
100
AcDbPolyline
90
8
70
1
43
0.0
10
-233.51210422999998
20
49.314775410000053
10
-233.51210423000001
20
36.314775410000053
42
-0.41421356237309503
10
-234.01210423000003
20
35.81477541000006
10
-235.01210422999998
20
35.81477541000001
42
-0.41421356237309503
10
-235.51210423000001
20
36.314775410000053
10
-235.51210422999998
20
49.314775410000053
42
-0.41421356237309503
10
-235.01210422999998
20
49.814775410000053
10
-234.01210423000003
20
49.814775410000095
42
-0.41421356237309503
0
LWPOLYLINE
5
193
100
AcDbEntity
8
0
100
AcDbPolyline
90
8
70
1
43
0.0
10
-79.074604230000006
20
87.414775410000018
10
-79.074604230000006
20
74.414775410000018
42
-0.41421356237309503
10
-79.574604230000006
20
73.914775410000018
10
-92.574604230000006
20
73.914775410000018
42
-0.41421356237308982
10
-93.074604230000006
20
74.414775410000033
10
-93.074604230000006
20
87.414775410000018
42
-0.41421356237309503
10
-92.574604229999991
20
87.914775410000033
10
-79.574604230000006
20
87.914775410000004
42
-0.41421356237310542
0
LWPOLYLINE
5
194
100
AcDbEntity
8
0
100
AcDbPolyline
90
8
70
1
43
0.0
10
-226.71210422999997
20
68.36477541000005
42
0.41421356237309503
10
-227.21210423000002
20
68.864775410000092
10
-240.21210422999999
20
68.86477541000005
42
0.41421356237309503
10
-240.71210422999999
20
68.36477541000005
10
-240.71210423000002
20
55.36477541000005
42
0.41421356237309503
10
-240.21210422999999
20
54.864775410000007
10
-227.21210423000002
20
54.864775410000057
42
0.41421356237309503
10
-226.71210423000002
20
55.36477541000005
0
LWPOLYLINE
5
195
100
AcDbEntity
8
0
100
AcDbPolyline
90
8
70
1
43
0.0
10
-170.06210422999999
20
54.864775410000036
42
0.41421356237309503
10
-169.56210422999999
20
55.364775410000043
10
-169.56210423000002
20
68.364775410000036
42
0.41421356237309503
10
-170.06210422999999
20
68.864775410000007
10
-183.06210423000005
20
68.864775410000036
42
0.41421356237309503
10
-183.56210422999999
20
68.36477541000005
10
-183.56210422999999
20
55.364775410000043
42
0.41421356237309503
10
-183.06210423000005
20
54.86477541000005
0
LWPOLYLINE
5
196
100
AcDbEntity
8
0
100
AcDbPolyline
90
8
70
1
43
0.0
10
-202.11210423000006
20
68.864775410000036
42
0.41421356237309503
10
-202.61210423000006
20
68.36477541000005
10
-202.61210423
20
55.364775410000043
42
0.41421356237309503
10
-202.11210423000006
20
54.86477541000005
10
-189.11210423
20
54.86477541000005
42
0.41421356237309503
10
-188.61210423000003
20
55.364775410000043
10
-188.61210423000003
20
68.36477541000005
42
0.41421356237309503
10
-189.11210423
20
68.864775410000036
0
LWPOLYLINE
5
197
100
AcDbEntity
8
0
100
AcDbPolyline
90
8
70
1
43
0.0
10
-221.16210422999998
20
68.86477541000005
42
0.41421356237309503
10
-221.66210422999998
20
68.36477541000005
10
-221.66210423000001
20
55.364775410000043
42
0.41421356237309503
10
-221.16210422999998
20
54.864775410000057
10
-208.16210423000001
20
54.864775410000057
42
0.41421356237309503
10
-207.66210423000004
20
55.364775410000043
10
-207.66210422999995
20
68.36477541000005
42
0.41421356237309503
10
-208.16210423000001
20
68.864775410000036
0
LWPOLYLINE
5
198
100
AcDbEntity
8
0
100
AcDbPolyline
90
8
70
1
43
0.0
10
4.2691457699999802
20
87.414775410000004
10
4.2691457699999953
20
74.414775410000004
42
-0.4142135623730947
10
3.7691457699999975
20
73.914775410000004
10
-9.2308542299999985
20
73.914775410000004
42
-0.41421356237309764
10
-9.730854230000002
20
74.414775410000004
10
-9.7308542300000038
20
87.414775410000004
42
-0.41421356237309503
10
-9.2308542299999967
20
87.914775410000004
10
3.7691457700000086
20
87.91477540999999
42
-0.4142135623730866
0
LWPOLYLINE
5
199
100
AcDbEntity
8
0
100
AcDbPolyline
90
8
70
1
43
0.0
10
-268.62460423000005
20
54.864775410000064
10
-269.62460423000005
20
54.864775410000092
42
-0.41421356237309503
10
-270.12460422999999
20
55.364775410000064
10
-270.12460423000005
20
68.364775410000064
42
-0.41421356237309503
10
-269.62460423000005
20
68.864775410000064
10
-268.62460423000005
20
68.864775410000107
42
-0.41421356237309503
10
-268.12460422999999
20
68.364775410000064
10
-268.12460422999999
20
55.364775410000064
42
-0.41421356237309503
0
LWPOLYLINE
5
200
100
AcDbEntity
8
0
100
AcDbPolyline
90
8
70
1
43
0.0
10
-297.86210423
20
55.364775410000064
10
-297.86210423000006
20
68.364775410000064
42
-0.41421356237309503
10
-297.36210423
20
68.864775410000078
10
-284.36210423
20
68.864775410000036
42
-0.41421356237309503
10
-283.86210423
20
68.364775410000064
10
-283.86210423
20
55.364775410000064
42
-0.41421356237309503
10
-284.36210423
20
54.864775410000071
10
-297.36210423
20
54.864775410000092
42
-0.41421356237309503
0
CIRCLE
5
201
100
AcDbEntity
8
0
100
AcDbCircle
10
-334.33835422889035
20
140.04977540829728
30
0
40
1.7000000000000171
210
0
220
0
230
1
0
CIRCLE
5
202
100
AcDbEntity
8
0
100
AcDbCircle
10
19.552645771109773
20
140.04977540829731
30
0
40
1.6999999999999971
210
0
220
0
230
1
0
CIRCLE
5
203
100
AcDbEntity
8
0
100
AcDbCircle
10
19.552645771109788
20
3.9977754082972994
30
0
40
1.6999999999999993
210
0
220
0
230
1
0
CIRCLE
5
204
100
AcDbEntity
8
0
100
AcDbCircle
10
-334.33835422889058
20
5.2746008360374441
30
0
40
1.699999999999946
210
0
220
0
230
1
0
LWPOLYLINE
5
205
100
AcDbEntity
8
0
100
AcDbPolyline
90
8
70
1
43
0.0
10
-285.80035422889017
20
12.100000208597306
10
-300.80035422889023
20
12.100000208597312
42
-0.41421356237312884
10
-301.30035422889023
20
12.600000208597306
10
-301.30035422889023
20
25.600000208597315
42
-0.41421356237312884
10
-300.80035422889023
20
26.100000208597308
10
-285.80035422889017
20
26.100000208597308
42
-0.41421356237309503
10
-285.30035422889023
20
25.600000208597336
10
-285.30035422889023
20
12.600000208597283
42
-0.41421356237309503
0
LINE
5
206
100
AcDbEntity
8
0
100
AcDbLine
10
-303.02971658350424
20
-1.0022245917026962
30
0
11
19.552645771109773
21
-1.0022245917026962
31
0
0
LINE
5
207
100
AcDbEntity
8
0
100
AcDbLine
10
-306.44735422889022
20
63.274600836030103
30
0
11
-306.44735422889022
21
0.77460083602998608
31
0
0
ENDSEC
0
SECTION
2
OBJECTS
0
DICTIONARY
5
C
100
AcDbDictionary
3
ACAD_GROUP
350
D
3
ACAD_MLINESTYLE
350
17
0
DICTIONARY
5
D
100
AcDbDictionary
0
DICTIONARY
5
1A
330
C
100
AcDbDictionary
0
DICTIONARY
5
17
100
AcDbDictionary
0
ENDSEC
0
EOF
